<?xml version="1.0" encoding="iso-8859-1"?>
<!-- Generator: Adobe Illustrator 19.0.0, SVG Export Plug-In . SVG Version: 6.00 Build 0)  -->
<svg version="1.1" id="Layer_1" xmlns="http://www.w3.org/2000/svg" xmlns:xlink="http://www.w3.org/1999/xlink" x="0px" y="0px"
	 viewBox="0 0 512.002 512.002" style="enable-background:new 0 0 512.002 512.002;" xml:space="preserve">
<g>
	<path style="fill:#6C686F;" d="M92.143,450.866l-31.01-31.009c-8.745-8.745-23.06-8.745-31.807,0l-12.098,12.098
		c-8.745,8.745-8.745,23.059,0.002,31.806l31.01,31.011c8.747,8.748,23.056,8.746,31.807,0l12.096-12.098
		C100.892,473.928,100.892,459.615,92.143,450.866z"/>
	<path style="fill:#6C686F;" d="M61.132,419.856l31.01,31.009c8.749,8.749,23.06,8.749,31.807,0.002l12.1-12.096
		c8.745-8.747,8.745-23.059,0-31.808l-2.501-2.495l-26.016-26.018l-2.499-2.495c-8.741-8.748-23.056-8.748-31.807-0.002
		l-12.096,12.096C52.387,396.799,52.387,411.111,61.132,419.856z"/>
	<path style="fill:#6C686F;" d="M107.533,378.451l26.016,26.018c10.123,10.121,26.68,10.121,36.801,0.002l11.629-11.634
		l52.642-52.638L493.741,81.076c10.123-10.119,10.123-26.677,0-36.799l-26.02-26.018c-10.12-10.121-26.678-10.121-36.796,0
		L107.533,341.651C97.412,351.772,97.412,368.332,107.533,378.451z"/>
	<path style="fill:#6C686F;" d="M293.461,419.806c0.027-0.028,0.052-0.057,0.079-0.082
		C293.513,419.752,293.487,419.778,293.461,419.806L293.461,419.806z M181.979,392.837l52.642-52.638l58.84,58.841
		c5.686,5.683,5.708,14.969,0.079,20.686c5.719-5.629,15.003-5.601,20.69,0.082l23.134,23.136c5.711,5.71,5.711,15.057,0,20.767
		l-31.871,31.873c-5.712,5.712-15.057,5.71-20.769,0l-23.137-23.136c-5.708-5.712-5.708-15.057,0-20.768
		c-5.708,5.708-15.055,5.711-20.762,0L181.979,392.837z"/>
</g>
<g>
	<path style="fill:#000003;" d="M512.001,62.678c0-9.821-3.805-19.034-10.717-25.944l-26.018-26.018
		C468.355,3.806,459.143,0,449.322,0c-9.821,0-19.033,3.806-25.94,10.716L99.989,334.107c-6.6,6.598-10.358,15.299-10.684,24.622
		c-0.059,0-0.114-0.004-0.173-0.004c-8.872,0-17.201,3.439-23.45,9.684l-12.096,12.098c-6.135,6.137-9.352,14.099-9.663,22.154
		c-8.385,0.32-16.206,3.715-22.142,9.652L9.684,424.412c-6.245,6.245-9.685,14.572-9.683,23.448c0,8.875,3.441,17.202,9.685,23.447
		l31.008,31.011c6.245,6.245,14.571,9.685,23.447,9.685s17.201-3.439,23.45-9.686l12.094-12.096
		c5.942-5.94,9.339-13.765,9.658-22.154c8.385-0.318,16.209-3.714,22.146-9.652l12.105-12.098
		c6.506-6.508,9.733-15.071,9.689-23.618c9.316-0.329,18.014-4.086,24.611-10.682l4.086-4.087l51.295,51.291
		c3.776,3.778,8.546,6.206,13.73,7.062c0.842,5.023,3.172,9.842,7.037,13.71l23.139,23.136c4.776,4.776,11.143,7.406,17.927,7.406
		c6.782,0,13.15-2.631,17.929-7.408l31.866-31.87c4.78-4.777,7.412-11.145,7.412-17.929s-2.632-13.152-7.409-17.927l-23.135-23.141
		c-3.776-3.772-8.546-6.2-13.723-7.055c-0.842-5.023-3.174-9.843-7.041-13.709l-51.297-51.296L501.284,88.621
		C508.195,81.712,512.001,72.498,512.001,62.678z M84.597,475.13l-12.092,12.096c-2.217,2.217-5.188,3.437-8.364,3.437
		c-3.174,0-6.143-1.221-8.358-3.435l-31.01-31.012c-2.215-2.215-3.434-5.183-3.434-8.359c0-3.175,1.218-6.143,3.434-8.359
		L36.871,427.4c2.213-2.215,5.182-3.434,8.358-3.434s6.145,1.219,8.358,3.434l31.012,31.009c2.217,2.217,3.439,5.186,3.439,8.361
		C88.037,469.945,86.817,472.913,84.597,475.13z M128.508,431.226l-12.105,12.098c-2.215,2.215-5.182,3.434-8.356,3.434
		c-3.174,0-6.143-1.221-8.36-3.437l-31.012-31.009c-4.607-4.608-4.607-12.109,0-16.719l12.094-12.094
		c2.217-2.216,5.188-3.436,8.364-3.436c3.174,0,6.141,1.219,8.358,3.437l13.869,13.868l14.645,14.645
		c0.031,0.032,0.065,0.062,0.098,0.093l2.4,2.4C133.113,419.117,133.113,426.619,128.508,431.226z M329.82,450.488
		c1.008,1.007,1.159,2.21,1.159,2.838c0,0.627-0.15,1.831-1.161,2.84l-31.869,31.872c-1.008,1.008-2.213,1.159-2.84,1.159
		c-0.627,0-1.834-0.15-2.842-1.159l-23.134-23.133c-1.532-1.534-1.537-4.121-0.021-5.661c0.006-0.007,0.015-0.015,0.022-0.022
		l28.972-28.973l2.899-2.898c1.008-1.008,2.211-1.159,2.838-1.159c0.627,0,1.834,0.151,2.842,1.159L329.82,450.488z M285.92,406.584
		c1.537,1.538,1.536,4.139-0.002,5.678l-3.542,3.541l-28.335,28.333c-0.006,0.005-0.009,0.011-0.015,0.016
		c-1.004,0.989-2.197,1.139-2.822,1.139c-0.627,0-1.83-0.15-2.838-1.158l-51.297-51.294l37.553-37.553L285.92,406.584z
		 M486.198,73.532l-259.1,259.103c-0.009,0.006-0.015,0.012-0.021,0.018l-52.644,52.638c-0.021,0.021-0.037,0.044-0.059,0.065
		l-11.568,11.569c-2.88,2.879-6.735,4.465-10.854,4.465c-4.101,0-7.939-1.573-10.815-4.426l-14.901-14.898l-11.161-11.161
		c-2.879-2.879-4.466-6.734-4.466-10.854s1.585-7.976,4.468-10.855L438.47,25.802c2.879-2.879,6.733-4.465,10.852-4.465
		c4.119,0,7.977,1.586,10.857,4.467l26.02,26.018c2.879,2.881,4.466,6.735,4.466,10.857
		C490.664,66.798,489.077,70.653,486.198,73.532z"/>
	<path style="fill:#000003;" d="M218.386,278.524l-0.177,0.18c-4.13,4.202-4.069,10.957,0.133,15.088
		c2.077,2.041,4.779,3.059,7.477,3.059c2.761,0,5.522-1.066,7.61-3.191l0.177-0.18c4.13-4.202,4.071-10.957-0.131-15.088
		C229.271,274.262,222.516,274.323,218.386,278.524z"/>
	<path style="fill:#000003;" d="M196.609,300.31l-53.579,53.576c-4.167,4.166-4.167,10.922-0.002,15.088
		c2.084,2.084,4.814,3.125,7.545,3.125c2.73,0,5.459-1.042,7.543-3.125l53.579-53.576c4.167-4.166,4.167-10.922,0.002-15.088
		C207.531,296.145,200.776,296.145,196.609,300.31z"/>
</g>
<g>
</g>
<g>
</g>
<g>
</g>
<g>
</g>
<g>
</g>
<g>
</g>
<g>
</g>
<g>
</g>
<g>
</g>
<g>
</g>
<g>
</g>
<g>
</g>
<g>
</g>
<g>
</g>
<g>
</g>
</svg>
