<?xml version="1.0" encoding="iso-8859-1"?>
<!-- Generator: Adobe Illustrator 19.0.0, SVG Export Plug-In . SVG Version: 6.00 Build 0)  -->
<svg version="1.1" id="Layer_1" xmlns="http://www.w3.org/2000/svg" xmlns:xlink="http://www.w3.org/1999/xlink" x="0px" y="0px"
	 viewBox="0 0 512 512" style="enable-background:new 0 0 512 512;" xml:space="preserve">
<path style="fill:#78D0E8;" d="M95.464,359.232l321.48-229.216l92.495,89.772C491.845,95.555,385.091,0,256,0
	C114.615,0,0,114.615,0,256c0,139.851,112.147,253.493,251.414,255.942L95.464,359.232z"/>
<path style="fill:#4CBCD6;" d="M95.464,359.232l155.95,152.71c1.527,0.027,3.053,0.058,4.586,0.058c141.385,0,256-114.615,256-256
	c0-12.294-0.886-24.38-2.561-36.212l-92.495-89.772L95.464,359.232z"/>
<g>
	<polygon style="fill:#FFFFFF;" points="362.736,347.888 362.736,441.272 244.448,347.888 	"/>
	<path style="fill:#FFFFFF;" d="M404.76,363.872H107.24c-9.552,0-17.376-7.816-17.376-17.376V142.368
		c0-9.552,7.816-17.376,17.376-17.376h297.512c9.552,0,17.376,7.816,17.376,17.376v204.136
		C422.128,356.056,414.312,363.872,404.76,363.872z"/>
</g>
<path style="fill:#CCCBCA;" d="M315.96,166.264c-24.192-14.28-48.44-1.256-59.952,7.008c-11.52-8.256-35.784-21.288-59.944-7
	c-14.696,8.672-23.552,20.472-26.328,35.056c-5.04,26.536,12.36,52.416,20.08,62.312c18.92,24.256,57.664,61.312,59.304,62.88
	c1.92,1.84,4.392,2.752,6.872,2.752s4.952-0.92,6.872-2.752c1.64-1.56,40.392-38.632,59.304-62.88
	c7.72-9.888,25.112-35.768,20.08-62.312C339.512,186.736,330.648,174.936,315.96,166.264z"/>
<g>
</g>
<g>
</g>
<g>
</g>
<g>
</g>
<g>
</g>
<g>
</g>
<g>
</g>
<g>
</g>
<g>
</g>
<g>
</g>
<g>
</g>
<g>
</g>
<g>
</g>
<g>
</g>
<g>
</g>
</svg>
